<svg width="58" height="78" viewBox="0 0 58 78" fill="none" xmlns="http://www.w3.org/2000/svg">
<path d="M28.9996 39V64.3333M28.9996 64.3333L40.9994 55.8889M28.9996 64.3333L16.9998 55.8889M32.9996 1.00367C32.6176 1 32.1887 1 31.6984 1H13.8006C9.32025 1 7.0784 1 5.36713 1.92039C3.86185 2.72999 2.63891 4.02088 1.87194 5.60981C1 7.41618 1 9.7826 1 14.5119V63.4897C1 68.219 1 70.5825 1.87194 72.3889C2.63891 73.9778 3.86185 75.2709 5.36713 76.0805C7.07672 77 9.31586 77 13.7875 77H44.2118C48.6834 77 50.9193 77 52.6289 76.0805C54.1341 75.2709 55.3612 73.9777 56.1281 72.3888C56.9992 70.5842 56.9992 68.2241 56.9992 63.504V27.7084C56.9992 27.1903 56.9991 26.737 56.9955 26.3333M32.9996 1.00367C34.1421 1.01465 34.8649 1.05846 35.5549 1.23332C36.3712 1.44018 37.1509 1.78223 37.8667 2.24523C38.6737 2.76728 39.3667 3.49879 40.7494 4.95833L53.2512 18.1548C54.6348 19.6153 55.3227 20.3435 55.8175 21.1957C56.2561 21.9512 56.5806 22.7751 56.7766 23.6367C56.9422 24.3648 56.9846 25.1279 56.9955 26.3333M32.9996 1.00367V12.8222C32.9996 17.5516 32.9996 19.9146 33.8715 21.7209C34.6385 23.3099 35.8614 24.6042 37.3667 25.4138C39.0763 26.3333 41.3154 26.3333 45.787 26.3333H56.9955M56.9955 26.3333H57" stroke="#2DC653" stroke-opacity="0.88" stroke-width="2" stroke-linecap="round" stroke-linejoin="round"/>
</svg>
