<svg width="289" height="289" viewBox="0 0 289 289" fill="none" xmlns="http://www.w3.org/2000/svg">
<path d="M261.651 153.605H225.78V126.398C225.78 124.772 225.73 123.179 225.628 121.617C242.319 105.88 243.832 85.1365 243.843 63.4784C243.843 58.6185 240.095 54.4472 235.235 54.2157C234.016 54.1585 232.799 54.3489 231.655 54.7753C230.512 55.2017 229.467 55.8553 228.584 56.6967C227.7 57.5381 226.996 58.5498 226.514 59.6708C226.033 60.7917 225.783 61.9987 225.78 63.2188C225.78 79.0234 224.731 90.3972 220.192 99.2534C209.344 76.0262 183.063 63.1792 144.499 63.1792C122.034 63.1792 102.622 68.3327 88.3756 78.0752C79.9653 83.8269 73.5869 91.0068 69.3535 99.3663C64.3468 90.6794 63.2179 79.5879 63.2179 63.4784C63.2179 58.6185 59.4925 54.4472 54.6382 54.1988C53.4157 54.1376 52.1936 54.3255 51.0459 54.7512C49.8983 55.1769 48.8492 55.8314 47.9623 56.675C47.0754 57.5186 46.3693 58.5337 45.8868 59.6586C45.4042 60.7835 45.1554 61.9947 45.1554 63.2188C45.1554 84.4591 46.6287 104.836 63.4663 120.584C63.3045 122.488 63.2217 124.426 63.2179 126.398V153.605H27.3469C22.487 153.605 18.3157 157.341 18.073 162.201C18.0141 163.423 18.2041 164.645 18.6315 165.791C19.059 166.937 19.7149 167.985 20.5594 168.87C21.404 169.755 22.4196 170.46 23.5447 170.941C24.6697 171.421 25.8807 171.669 27.1042 171.667H63.2292V180.625C63.2206 191.01 65.2117 201.299 69.0939 210.931C54.6044 223.885 45.257 238.199 45.1554 261.534C45.1554 266.467 48.8921 270.734 53.8254 270.932C55.041 270.981 56.2539 270.783 57.3913 270.351C58.5286 269.92 59.5671 269.263 60.4443 268.42C61.3215 267.577 62.0193 266.565 62.4959 265.446C62.9726 264.327 63.2181 263.123 63.2179 261.906C63.2179 246.293 68.3545 236.67 77.9897 227.294C89.1006 243.11 105.471 254.461 124.179 259.321C125.513 259.666 126.909 259.7 128.259 259.422C129.609 259.144 130.877 258.561 131.967 257.717C133.056 256.873 133.938 255.791 134.545 254.553C135.152 253.316 135.468 251.956 135.468 250.578V108.629C135.468 103.769 139.205 99.5978 144.065 99.355C145.286 99.2962 146.506 99.4859 147.652 99.9126C148.797 100.339 149.844 100.994 150.729 101.838C151.614 102.681 152.319 103.695 152.801 104.819C153.282 105.943 153.53 107.152 153.53 108.375V250.578C153.531 251.956 153.846 253.316 154.453 254.553C155.06 255.791 155.942 256.873 157.032 257.717C158.121 258.561 159.39 259.144 160.74 259.422C162.089 259.7 163.485 259.666 164.819 259.321C183.524 254.458 199.892 243.107 211.003 227.294C220.599 236.63 225.73 246.214 225.775 261.697C225.754 264.033 226.624 266.288 228.208 268.004C229.791 269.721 231.969 270.77 234.298 270.938C235.527 271.008 236.756 270.826 237.912 270.403C239.068 269.981 240.125 269.327 241.019 268.481C241.913 267.635 242.624 266.616 243.11 265.485C243.595 264.355 243.845 263.137 243.843 261.906C243.843 238.38 234.473 223.958 219.916 210.931C223.798 201.299 225.789 191.01 225.78 180.625V171.667H261.905C263.129 171.669 264.34 171.421 265.465 170.941C266.59 170.46 267.606 169.755 268.45 168.87C269.295 167.985 269.951 166.937 270.378 165.791C270.806 164.645 270.996 163.423 270.937 162.201C270.7 157.341 266.511 153.605 261.651 153.605Z" fill="#FF0000" fill-opacity="0.65"/>
<path d="M181.409 58.7031L181.589 58.7539C189.249 60.8988 195.74 52.7989 191.862 45.8562C187.176 37.4361 180.326 30.4204 172.02 25.5342C163.714 20.6479 154.254 18.0685 144.618 18.0625H144.381C134.647 18.0691 125.095 20.701 116.732 25.6808C108.368 30.6607 101.503 37.8041 96.8592 46.3585C92.9983 53.4594 99.7605 61.5988 107.494 59.2619C118.619 55.8752 131.082 54.148 144.499 54.148C158.097 54.148 170.515 55.6833 181.409 58.7031Z" fill="#FF0000" fill-opacity="0.65"/>
</svg>
