<svg width="74" height="80" viewBox="0 0 74 80" fill="none" xmlns="http://www.w3.org/2000/svg">
<path d="M13.4302 48.0311L32.0528 39.4484C32.876 39.0691 33.5147 38.3782 33.8286 37.5279C34.1424 36.6776 34.1055 35.7374 33.7262 34.9142L25.1435 16.2916C24.7641 15.4684 24.0733 14.8296 23.2229 14.5158C22.3726 14.202 21.4324 14.2388 20.6093 14.6182L1.98659 23.2009C1.16342 23.5803 0.524666 24.2711 0.210856 25.1215C-0.102955 25.9718 -0.0661194 26.912 0.313259 27.7351L8.89593 46.3578C9.27531 47.181 9.96616 47.8197 10.8165 48.1335C11.6668 48.4473 12.607 48.4105 13.4302 48.0311ZM7.95126 27.978L20.3664 22.2562L26.0882 34.6713L13.673 40.3931L7.95126 27.978ZM51.647 0.313765L33.0244 8.89644C32.2012 9.27582 31.5624 9.96666 31.2486 10.817C30.9348 11.6673 30.9717 12.6075 31.351 13.4307L39.9337 32.0533C40.3131 32.8765 41.0039 33.5153 41.8543 33.8291C42.7046 34.1429 43.6448 34.106 44.4679 33.7267L63.0906 25.144C63.9138 24.7646 64.5525 24.0738 64.8663 23.2234C65.1801 22.3731 65.1433 21.4329 64.7639 20.6098L56.1813 1.9871C55.8019 1.16392 55.111 0.525172 54.2607 0.211362C53.4104 -0.10245 52.4702 -0.0656125 51.647 0.313765ZM57.1259 20.3669L44.7108 26.0887L38.989 13.6736L51.4041 7.95177L57.1259 20.3669ZM46.3573 70.4862C47.1805 70.1068 47.8192 69.416 48.133 68.5657C48.4468 67.7153 48.41 66.7752 48.0306 65.952L39.4479 47.3293C39.0686 46.5062 38.3777 45.8674 37.5274 45.5536C36.6771 45.2398 35.7369 45.2766 34.9137 45.656L16.2911 54.2387C15.4679 54.6181 14.8291 55.3089 14.5153 56.1592C14.2015 57.0096 14.2383 57.9497 14.6177 58.7729L23.2004 77.3956C23.5798 78.2187 24.2706 78.8575 25.1209 79.1713C25.9713 79.4851 26.9114 79.4483 27.7346 79.0689L46.3573 70.4862ZM22.2557 59.0158L34.6708 53.294L40.3926 65.7091L27.9775 71.4309L22.2557 59.0158ZM61.1744 37.3162L54.9668 40.1771L57.8277 46.3847L51.6202 49.2455L54.4811 55.4531L60.6886 52.5922L63.5495 58.7998L69.7571 55.9389L66.8962 49.7313L73.1037 46.8704L70.2428 40.6629L64.0353 43.5238L61.1744 37.3162Z" fill="#018020"/>
</svg>
