<svg width="81" height="81" viewBox="0 0 81 81" fill="none" xmlns="http://www.w3.org/2000/svg">
<path d="M60.3565 12.9303L63.2265 11.2084L64.9371 14.0597L62.0671 15.7815L60.3565 12.9303ZM59.2159 17.4921L62.0671 15.7815L63.789 18.6515L60.9378 20.3621L59.2159 17.4921ZM55.7947 11.7897L58.6459 10.0791L60.3565 12.9303L57.5053 14.6409L55.7947 11.7897ZM54.6541 16.3515L57.5053 14.6409L59.2159 17.4921L56.3647 19.2028L54.6541 16.3515ZM76.9484 53.5111L75.2265 50.6411L78.0777 48.9305L76.3671 46.0793L73.5159 47.7899L71.8053 44.9387L68.9353 46.6606L70.6459 49.5118L67.7947 51.2224L69.5053 54.0736L72.3565 52.363L74.0784 55.233L76.9484 53.5111ZM56.9272 26.6458L59.7972 24.9239L63.2297 30.6451L60.3597 32.367L56.9272 26.6458ZM57.5085 34.0776L60.3597 32.367L62.0703 35.2182L59.2191 36.9288L57.5085 34.0776ZM43.7898 11.2116L46.641 9.50102L48.3516 12.3522L45.5004 14.0628L43.7898 11.2116ZM56.3491 38.6507L59.2191 36.9288L60.941 39.7988L58.071 41.5207L56.3491 38.6507ZM42.6304 15.7847L45.5004 14.0628L47.2223 16.9328L44.3523 18.6547L42.6304 15.7847ZM55.2198 43.2313L58.071 41.5207L59.7816 44.3719L56.9304 46.0825L55.2198 43.2313ZM41.5011 20.3653L44.3523 18.6547L46.0629 21.5059L43.2117 23.2165L41.5011 20.3653ZM54.0792 47.7931L56.9304 46.0825L58.641 48.9337L55.7898 50.6443L54.0792 47.7931ZM40.3605 24.9271L43.2117 23.2165L44.9223 26.0677L42.0711 27.7783L40.3605 24.9271ZM61.4954 66.6598L64.3654 64.9379L66.0873 67.8079L63.2173 69.5297L61.4954 66.6598ZM52.9198 52.3662L55.7898 50.6443L57.5117 53.5143L54.6417 55.2362L52.9198 52.3662ZM39.2011 29.5002L40.923 32.3702L38.0718 34.0808L39.7824 36.932L56.9272 26.6458L55.2166 23.7946L43.793 30.6483L42.0711 27.7783L39.2011 29.5002ZM51.7905 56.9468L54.6417 55.2362L56.3523 58.0874L53.5011 59.798L51.7905 56.9468ZM44.9191 6.63105L46.641 9.50102L49.511 7.77915L46.0785 2.05797L23.2125 15.7767L24.9231 18.6279L44.9191 6.63105ZM50.6499 61.5086L53.5011 59.798L55.2117 62.6492L52.3605 64.3598L50.6499 61.5086ZM49.4905 66.0817L52.3605 64.3598L54.0824 67.2298L51.2124 68.9517L49.4905 66.0817ZM22.0532 20.3497L24.9231 18.6279L26.645 21.4978L23.775 23.2197L22.0532 20.3497ZM48.3612 70.6623L51.2124 68.9517L52.923 71.8029L50.0718 73.5135L48.3612 70.6623ZM37.4937 46.0857L20.3489 56.3719L22.0595 59.2231L36.3531 50.6475L39.7856 56.3687L42.6368 54.6581L37.4937 46.0857ZM20.9238 24.9303L23.775 23.2197L25.4856 26.0709L22.6344 27.7815L20.9238 24.9303ZM47.2018 75.2354L50.0718 73.5135L51.7937 76.3835L48.9237 78.1053L47.2018 75.2354ZM36.9156 58.0906L39.7856 56.3687L44.9287 64.9411L42.0587 66.663L36.9156 58.0906ZM19.7645 29.5034L22.6344 27.7815L24.3563 30.6515L21.4863 32.3734L19.7645 29.5034ZM39.2075 68.3736L42.0587 66.663L47.2018 75.2354L44.3506 76.946L39.2075 68.3736ZM18.6351 34.084L21.4863 32.3734L23.1969 35.2246L20.3457 36.9352L18.6351 34.084ZM17.4945 38.6458L20.3457 36.9352L22.0563 39.7864L19.2051 41.497L17.4945 38.6458ZM16.3352 43.2189L19.2051 41.497L20.927 44.367L18.057 46.0889L16.3352 43.2189ZM27.2026 67.7955L30.0538 66.0849L31.7757 68.9549L28.9245 70.6655L27.2026 67.7955ZM15.2058 47.7995L18.057 46.0889L19.7676 48.9401L16.9164 50.6507L15.2058 47.7995ZM3.19775 27.7847L4.90836 30.6359L2.05715 32.3466L3.77902 35.2165L6.63023 33.5059L8.34085 36.3571L11.1921 34.6465L9.48145 31.7953L12.3514 30.0734L10.6295 27.2035L7.75958 28.9253L6.04896 26.0741L3.19775 27.7847ZM26.0733 72.3761L28.9245 70.6655L30.6351 73.5167L27.7839 75.2273L26.0733 72.3761ZM22.6408 66.6549L25.492 64.9443L27.2026 67.7955L24.3514 69.5061L22.6408 66.6549ZM14.0652 52.3613L16.9164 50.6507L20.3489 56.3719L17.4977 58.0825L14.0652 52.3613ZM21.4815 71.228L24.3514 69.5061L26.0733 72.3761L23.2033 74.098L21.4815 71.228Z" fill="#018020"/>
<path d="M60.3565 12.9303L63.2265 11.2084L64.9371 14.0597L62.0671 15.7815M60.3565 12.9303L62.0671 15.7815M60.3565 12.9303L58.6459 10.0791L55.7947 11.7897L57.5053 14.6409M60.3565 12.9303L57.5053 14.6409M62.0671 15.7815L59.2159 17.4921M62.0671 15.7815L63.789 18.6515L60.9378 20.3621L59.2159 17.4921M59.2159 17.4921L57.5053 14.6409M59.2159 17.4921L56.3647 19.2028L54.6541 16.3515L57.5053 14.6409M56.9272 26.6458L59.7972 24.9239L63.2297 30.6451L60.3597 32.367M56.9272 26.6458L60.3597 32.367M56.9272 26.6458L39.7824 36.932L38.0718 34.0808L40.923 32.3702L39.2011 29.5002L42.0711 27.7783M56.9272 26.6458L55.2166 23.7946L43.793 30.6483L42.0711 27.7783M60.3597 32.367L57.5085 34.0776L59.2191 36.9288M60.3597 32.367L62.0703 35.2182L59.2191 36.9288M59.2191 36.9288L56.3491 38.6507L58.071 41.5207M59.2191 36.9288L60.941 39.7988L58.071 41.5207M46.641 9.50102L43.7898 11.2116L45.5004 14.0628M46.641 9.50102L48.3516 12.3522L45.5004 14.0628M46.641 9.50102L44.9191 6.63105L24.9231 18.6279M46.641 9.50102L49.511 7.77915L46.0785 2.05797L23.2125 15.7767L24.9231 18.6279M45.5004 14.0628L42.6304 15.7847L44.3523 18.6547M45.5004 14.0628L47.2223 16.9328L44.3523 18.6547M58.071 41.5207L55.2198 43.2313L56.9304 46.0825M58.071 41.5207L59.7816 44.3719L56.9304 46.0825M44.3523 18.6547L41.5011 20.3653L43.2117 23.2165M44.3523 18.6547L46.0629 21.5059L43.2117 23.2165M56.9304 46.0825L54.0792 47.7931L55.7898 50.6443M56.9304 46.0825L58.641 48.9337L55.7898 50.6443M43.2117 23.2165L40.3605 24.9271L42.0711 27.7783M43.2117 23.2165L44.9223 26.0677L42.0711 27.7783M55.7898 50.6443L52.9198 52.3662L54.6417 55.2362M55.7898 50.6443L57.5117 53.5143L54.6417 55.2362M54.6417 55.2362L51.7905 56.9468L53.5011 59.798M54.6417 55.2362L56.3523 58.0874L53.5011 59.798M53.5011 59.798L50.6499 61.5086L52.3605 64.3598M53.5011 59.798L55.2117 62.6492L52.3605 64.3598M24.9231 18.6279L22.0532 20.3497L23.775 23.2197M24.9231 18.6279L26.645 21.4978L23.775 23.2197M52.3605 64.3598L49.4905 66.0817L51.2124 68.9517M52.3605 64.3598L54.0824 67.2298L51.2124 68.9517M51.2124 68.9517L48.3612 70.6623L50.0718 73.5135M51.2124 68.9517L52.923 71.8029L50.0718 73.5135M23.775 23.2197L20.9238 24.9303L22.6344 27.7815M23.775 23.2197L25.4856 26.0709L22.6344 27.7815M50.0718 73.5135L47.2018 75.2354M50.0718 73.5135L51.7937 76.3835L48.9237 78.1053L47.2018 75.2354M20.3489 56.3719L37.4937 46.0857L42.6368 54.6581L39.7856 56.3687M20.3489 56.3719L22.0595 59.2231L36.3531 50.6475L39.7856 56.3687M20.3489 56.3719L16.9164 50.6507M20.3489 56.3719L17.4977 58.0825L14.0652 52.3613L16.9164 50.6507M39.7856 56.3687L36.9156 58.0906L42.0587 66.663M39.7856 56.3687L44.9287 64.9411L42.0587 66.663M22.6344 27.7815L19.7645 29.5034L21.4863 32.3734M22.6344 27.7815L24.3563 30.6515L21.4863 32.3734M47.2018 75.2354L42.0587 66.663M47.2018 75.2354L44.3506 76.946L39.2075 68.3736L42.0587 66.663M21.4863 32.3734L18.6351 34.084L20.3457 36.9352M21.4863 32.3734L23.1969 35.2246L20.3457 36.9352M20.3457 36.9352L17.4945 38.6458L19.2051 41.497M20.3457 36.9352L22.0563 39.7864L19.2051 41.497M19.2051 41.497L16.3352 43.2189L18.057 46.0889M19.2051 41.497L20.927 44.367L18.057 46.0889M18.057 46.0889L15.2058 47.7995L16.9164 50.6507M18.057 46.0889L19.7676 48.9401L16.9164 50.6507M27.2026 67.7955L30.0538 66.0849L31.7757 68.9549L28.9245 70.6655M27.2026 67.7955L28.9245 70.6655M27.2026 67.7955L25.492 64.9443L22.6408 66.6549L24.3514 69.5061M27.2026 67.7955L24.3514 69.5061M28.9245 70.6655L26.0733 72.3761M28.9245 70.6655L30.6351 73.5167L27.7839 75.2273L26.0733 72.3761M26.0733 72.3761L24.3514 69.5061M26.0733 72.3761L23.2033 74.098L21.4815 71.228L24.3514 69.5061M76.9484 53.5111L75.2265 50.6411L78.0777 48.9305L76.3671 46.0793L73.5159 47.7899L71.8053 44.9387L68.9353 46.6606L70.6459 49.5118L67.7947 51.2224L69.5053 54.0736L72.3565 52.363L74.0784 55.233L76.9484 53.5111ZM61.4954 66.6598L64.3654 64.9379L66.0873 67.8079L63.2173 69.5297L61.4954 66.6598ZM3.19775 27.7847L4.90836 30.6359L2.05715 32.3466L3.77902 35.2165L6.63023 33.5059L8.34085 36.3571L11.1921 34.6465L9.48145 31.7953L12.3514 30.0734L10.6295 27.2035L7.75958 28.9253L6.04896 26.0741L3.19775 27.7847Z" stroke="#018020" stroke-width="3"/>
</svg>
