<svg width="64" height="69" viewBox="0 0 64 69" fill="none" xmlns="http://www.w3.org/2000/svg">
<path d="M2.51297 18.4147C1.42624 18.8986 0.715358 19.9585 0.677708 21.1473L0.00095752 42.4742C-0.0176245 43.0614 0.131133 43.6418 0.42988 44.1476C0.728627 44.6534 1.16505 45.0639 1.68823 45.3311L46.4334 68.1354C46.8448 68.3453 47.298 68.4607 47.7597 68.4729C48.2214 68.4851 48.68 68.394 49.1019 68.2061C49.5239 68.0182 49.8984 67.7383 50.1983 67.387C50.4981 67.0357 50.7155 66.6217 50.8347 66.1755L63.8224 17.6627C63.9738 17.0951 63.9607 16.4961 63.7846 15.9356C63.6085 15.3752 63.2767 14.8763 62.8279 14.4973L46.5244 0.731696C46.0797 0.355923 45.5381 0.113063 44.9617 0.0309587C44.3854 -0.0511445 43.7975 0.0308314 43.2656 0.267488L2.51297 18.4147ZM6.37034 37.0443L6.80842 23.2844L15.1582 19.5662L16.6604 32.4621L6.37034 37.0443ZM9.57905 42.3979L18.8571 38.2664L34.0267 54.8592L9.57905 42.3979ZM24.8228 35.6099L41.1193 28.353L43.8563 56.4262L24.8228 35.6099ZM47.085 25.6964L56.363 21.5649L49.2682 48.0722L47.085 25.6964ZM54.5309 15.5984L44.2386 20.1815L35.659 10.4371L44.0088 6.71899L54.5309 15.5984ZM38.3113 22.8209L22.5899 29.8217L21.0877 16.9258L29.7318 13.0766L38.3113 22.8209Z" fill="#018020"/>
</svg>
