<svg width="111" height="111" viewBox="0 0 111 111" fill="none" xmlns="http://www.w3.org/2000/svg">
<path d="M55.5 4.625L83.25 50.875H27.75L55.5 4.625ZM60.125 62.4375H97.125V99.4375H60.125V62.4375ZM31.2188 101.75C37.0452 101.75 42.6331 99.4354 46.753 95.3155C50.8729 91.1956 53.1875 85.6077 53.1875 79.7812C53.1875 73.9548 50.8729 68.3669 46.753 64.247C42.6331 60.1271 37.0452 57.8125 31.2188 57.8125C25.3923 57.8125 19.8044 60.1271 15.6845 64.247C11.5646 68.3669 9.25 73.9548 9.25 79.7812C9.25 85.6077 11.5646 91.1956 15.6845 95.3155C19.8044 99.4354 25.3923 101.75 31.2188 101.75Z" fill="#FB7805" fill-opacity="0.68"/>
</svg>
