<svg width="187" height="190" viewBox="0 0 187 190" fill="none" xmlns="http://www.w3.org/2000/svg">
<path d="M94.1667 70L125.333 101.167H105.854V124.542H82.4792V101.167H63L94.1667 70Z" fill="#018020"/>
<path d="M150.542 158.833C150.542 164.499 145.916 169.125 140.25 169.125H46.7505C41.0844 169.125 36.4585 164.499 36.4585 158.833V34.167C36.4585 28.5009 41.0844 23.875 46.7505 23.875H105.188L105.435 23.8877C106.007 23.9446 106.545 24.1973 106.956 24.6074L149.81 67.4609C150.279 67.9298 150.542 68.5665 150.542 69.2295V158.833Z" stroke="white" stroke-width="5" stroke-linecap="round" stroke-linejoin="round"/>
<path d="M111.949 32.2716C112.871 31.879 113.939 32.075 114.661 32.7697L130.447 47.9484L146.232 63.1261C146.968 63.8331 147.2 64.9163 146.819 65.8625C146.438 66.8087 145.52 67.4289 144.5 67.4289H112.929C111.548 67.4289 110.429 66.3094 110.429 64.9289V34.5714C110.429 33.5693 111.027 32.6643 111.949 32.2716Z" stroke="white" stroke-width="5" stroke-linecap="round" stroke-linejoin="round"/>
</svg>
